<?xml version="1.0" encoding="iso-8859-1"?>
<!-- Generator: Adobe Illustrator 19.0.0, SVG Export Plug-In . SVG Version: 6.00 Build 0)  -->
<svg version="1.1" id="Layer_1" xmlns="http://www.w3.org/2000/svg" xmlns:xlink="http://www.w3.org/1999/xlink" x="0px" y="0px"
	 viewBox="0 0 511.998 511.998" style="enable-background:new 0 0 511.998 511.998;" xml:space="preserve">
<g>
	<g>
		<g>
			<path d="M464.456,314.514l-54.857-73.143c-1.408-1.883-3.493-3.145-5.806-3.529l-54.857-9.143
				c-1.251-0.209-2.484-0.152-3.642,0.126c-11.43-14.769-22.629-28.244-32.226-39.383l64.01-16.003
				c2.35-0.585,4.37-2.085,5.614-4.16l27.429-45.714c2.606-4.334,1.198-9.947-3.127-12.544c-4.334-2.606-9.957-1.207-12.544,3.127
				l-25.49,42.469l-59.877,14.973c1.156-5.164,1.775-10.579,1.775-16.161c0-7.18-1.029-14.159-2.948-20.723
				c0.089-0.082,0.182-0.156,0.268-0.242l36.571-36.571c1.719-1.71,2.679-4.041,2.679-6.464V64c0-5.047-4.096-9.143-9.143-9.143
				c-5.047,0-9.143,4.096-9.143,9.143v23.643l-29.31,29.31c-1.609-2.485-3.381-4.835-5.304-7.039
				c4.461-4.88,7.186-11.371,7.186-18.486c0-11.726-7.401-21.754-17.775-25.669c3.618-26.771,26.598-47.474,54.346-47.474
				c5.047,0,9.143-4.096,9.143-9.143c0-5.047-4.096-9.143-9.143-9.143c-37.231,0-68.034,27.973-72.551,64h-19.47
				c-4.516-36.027-35.32-64-72.551-64c-5.047,0-9.143,4.096-9.143,9.143c0,5.047,4.096,9.143,9.143,9.143
				c27.749,0,50.729,20.702,54.346,47.474c-10.374,3.915-17.775,13.943-17.775,25.669c0,7.115,2.725,13.605,7.185,18.485
				c-1.923,2.204-3.695,4.555-5.303,7.04l-29.31-29.31V64c0-5.047-4.096-9.143-9.143-9.143s-9.143,4.096-9.143,9.143v27.429
				c0,2.423,0.96,4.754,2.679,6.464l36.571,36.571c0.086,0.086,0.18,0.161,0.269,0.243c-1.918,6.564-2.947,13.542-2.947,20.722
				c0,5.581,0.619,10.997,1.775,16.161l-59.879-14.974l-25.49-42.469c-2.597-4.334-8.21-5.723-12.544-3.127
				c-4.325,2.597-5.733,8.21-3.127,12.544l27.429,45.714c1.243,2.075,3.264,3.575,5.614,4.16l59.88,14.97
				c-9.799,11.355-21.359,25.25-33.16,40.526l-53.436,8.906c-2.313,0.384-4.398,1.646-5.806,3.529l-54.857,73.143
				c-3.026,4.041-2.213,9.774,1.829,12.8c1.646,1.234,3.575,1.829,5.477,1.829c2.779,0,5.522-1.262,7.323-3.657l52.663-70.217
				l31.007-5.167c-25.132,34.936-48.255,73.882-54.363,105.47c-0.027,0.329-0.338,3.328-0.046,7.845
				c1.024,16.219,8.448,31.067,20.901,41.829c11.474,9.911,26.386,15.378,41.582,15.378c1.737,0,3.474-0.073,5.221-0.219
				c7.655-0.636,14.634-1.836,20.92-3.559c12.586,58.169,41.788,95.153,75.942,95.153c33.804,0,62.931-36.546,75.675-93.972
				c4.999,1.101,10.389,1.899,16.16,2.379c1.746,0.146,3.483,0.219,5.221,0.219c15.195,0,30.107-5.477,41.591-15.387
				c12.453-10.752,19.877-25.609,20.891-41.819c0.293-4.517-0.009-7.515-0.165-8.585c-6.104-31.515-29.503-70.634-54.839-105.668
				l36.634,6.105l52.663,70.217c1.801,2.395,4.544,3.657,7.323,3.657c1.902,0,3.831-0.594,5.477-1.829
				C466.669,324.288,467.483,318.555,464.456,314.514z M237.713,82.286h36.571c5.038,0,9.143,4.105,9.143,9.143
				c0,3.775-2.306,7.026-5.581,8.419c-0.256,0.061-0.512,0.12-0.763,0.204c-0.825,0.266-1.527,0.424-2.164,0.488
				c-0.21,0.015-0.42,0.032-0.634,0.032h-36.571c-0.214,0-0.423-0.018-0.633-0.032c-0.64-0.064-1.346-0.222-2.163-0.488
				c-0.251-0.083-0.505-0.141-0.76-0.201c-3.279-1.391-5.586-4.644-5.586-8.421C228.571,86.391,232.676,82.286,237.713,82.286z
				 M219.429,155.43c0-14.484,5.672-28.19,14.998-36.776c1.044,0.125,2.104,0.197,3.18,0.201c0.036,0,0.072,0.004,0.108,0.004
				h36.571c0.038,0,0.076-0.004,0.113-0.004c1.074-0.004,2.132-0.076,3.175-0.201c9.326,8.586,14.998,22.293,14.998,36.776
				c0,3.424-0.313,6.758-0.887,9.969c-3.691-4.01-6.066-6.51-6.674-7.146c-2.185-2.277-5.358-3.273-8.457-2.633
				c-3.09,0.631-5.623,2.807-6.729,5.76c-3.282,8.81-4.618,22.291-4.642,38.303c-2.936,0.953-6.013,1.462-9.183,1.462
				c-5.044,0-9.852-1.283-14.227-3.6c-0.138-15.07-1.496-27.75-4.632-36.166c-1.097-2.953-3.639-5.129-6.729-5.76
				c-3.109-0.649-6.281,0.357-8.457,2.633c-0.312,0.327-1.099,1.155-2.279,2.414C219.518,158.945,219.429,157.201,219.429,155.43z
				 M283.914,184.08c0.106,0.118,0.218,0.243,0.325,0.362c-0.128,0.194-0.263,0.38-0.393,0.572
				C283.869,184.704,283.889,184.386,283.914,184.08z M157.616,402.182c-12.087,0.997-24.238-2.926-33.335-10.779
				c-8.704-7.515-13.888-17.865-14.601-29.147c-0.155-2.377-0.073-4.032-0.11-4.032c0,0-0.009,0.018-0.018,0.046
				c9.704-49.986,70.198-124.753,103.576-162.977c3.001,4.384,6.479,8.304,10.351,11.641c-0.089,3.362-0.234,6.848-0.424,10.433
				c-0.022,0.19-0.054,0.378-0.064,0.57c-3.118,59.299-19.167,142.409-21.408,153.802c-0.088,0.442-0.177,0.886-0.263,1.314
				c-0.023,0.11-0.028,0.224-0.045,0.334c-0.04,0.247-0.082,0.493-0.107,0.746c-0.065,0.814-0.174,1.603-0.304,2.381
				c-1.45,8.439-6.82,14.214-13.973,18.14c-1.112,0.601-2.28,1.175-3.525,1.715c-0.118,0.051-0.229,0.111-0.344,0.167
				C175.244,399.876,166.04,401.48,157.616,402.182z M255.996,493.713c-24.911,0-48.597-34.158-58.73-83.885
				c10.654-6.198,17.663-14.875,20.645-25.739c0.022-0.078,0.044-0.156,0.065-0.235c0.182-0.68,0.348-1.368,0.499-2.065
				c0.04-0.181,0.082-0.361,0.12-0.544c0.122-0.6,0.228-1.209,0.327-1.821c0.041-0.253,0.089-0.502,0.126-0.756
				c0.088-0.607,0.156-1.224,0.222-1.843c0.024-0.225,0.06-0.445,0.081-0.672c0.079-0.397,0.195-0.985,0.343-1.736
				c3.497-17.622,17.833-92.371,21.323-150.776c8.238-4.588,16.223-5.525,24.798-2.338c3.166,57.394,17.25,131.787,21.196,151.807
				c0.274,1.404,0.479,2.438,0.6,3.042c0.071,0.765,0.163,1.544,0.276,2.335c0.005,0.033,0.01,0.066,0.015,0.099
				c0.095,0.653,0.204,1.313,0.331,1.98c0.049,0.26,0.104,0.516,0.157,0.773c0.066,0.317,0.136,0.634,0.21,0.953
				c0.146,0.636,0.306,1.264,0.478,1.885c0.001,0.005,0.003,0.01,0.004,0.016c3.407,12.281,11.973,21.759,25.139,28.01
				C303.834,460.56,280.404,493.713,255.996,493.713z M397.286,362.266c-0.704,11.273-5.897,21.623-14.592,29.129
				c-9.097,7.863-21.266,11.785-33.344,10.789c-6.903-0.576-14.332-1.761-21.072-4.008c-0.209-0.09-0.42-0.178-0.638-0.253
				c-2.552-0.879-4.873-1.863-6.973-2.951c-0.125-0.066-0.247-0.134-0.371-0.201c-0.379-0.201-0.742-0.41-1.106-0.618
				c-6.851-3.994-11.919-9.787-13.176-18.154c-0.002-0.012-0.003-0.025-0.004-0.038c-0.089-0.596-0.159-1.205-0.208-1.828
				c-0.037-0.366-0.082-0.722-0.155-1.079c-0.135-0.669-0.272-1.358-0.412-2.061c-1.858-9.486-9.695-50.404-15.444-93.944
				c-1.88-14.304-3.507-28.646-4.652-42.145c-0.039-0.466-0.08-0.933-0.118-1.397c-0.005-0.061-0.01-0.122-0.015-0.184
				c-0.518-6.347-0.926-12.534-1.197-18.459c-0.005-0.122-0.03-0.239-0.04-0.36c-0.06-1.283-0.113-2.551-0.159-3.805
				c4.847-3.308,9.229-7.444,12.984-12.263c33.845,39.019,91.365,110.966,100.71,159.074
				C397.331,357.813,397.459,359.578,397.286,362.266z"/>
			<path d="M200.566,286.642c1.765-4.736-0.631-10.002-5.358-11.776c-4.736-1.746-9.993,0.622-11.776,5.349l-12.469,33.25
				l-9.072-9.072c-3.575-3.575-9.353-3.575-12.928,0c-3.575,3.575-3.575,9.353,0,12.928l14.948,14.948l-7.908,21.088
				c-1.765,4.736,0.631,10.002,5.358,11.776c1.061,0.393,2.139,0.585,3.209,0.585c3.703,0,7.186-2.267,8.567-5.934L200.566,286.642z
				"/>
			<path d="M338.861,359.785c1.381,3.666,4.864,5.934,8.567,5.934c1.07,0,2.149-0.192,3.209-0.585
				c4.727-1.774,7.122-7.04,5.358-11.776l-7.908-21.088l14.948-14.948c3.575-3.575,3.575-9.353,0-12.928
				c-3.575-3.575-9.353-3.575-12.928,0l-9.072,9.072l-12.469-33.25c-1.783-4.727-7.04-7.095-11.776-5.349
				c-4.727,1.774-7.122,7.04-5.358,11.776L338.861,359.785z"/>
		</g>
	</g>
</g>
<g>
</g>
<g>
</g>
<g>
</g>
<g>
</g>
<g>
</g>
<g>
</g>
<g>
</g>
<g>
</g>
<g>
</g>
<g>
</g>
<g>
</g>
<g>
</g>
<g>
</g>
<g>
</g>
<g>
</g>
</svg>
